<svg width="609" height="192" viewBox="0 0 609 192" fill="none" xmlns="http://www.w3.org/2000/svg">
<g clip-path="url(#clip0_688_12)">
<path d="M63.1557 4.48438L1.95947 154.62H43.1242L104.22 4.48438H63.1557Z" fill="#FFB71B"/>
<path d="M93.2031 59.7704L132.265 154.62H176.334L114.236 9.29102L93.2031 59.7704Z" fill="white"/>
<path d="M249.827 47.2437C242.457 47.2437 235.842 48.7328 229.984 51.7035C224.088 54.6742 219.326 58.998 215.66 64.6673V49.8137H184.441V154.129H216.529V95.546C216.529 88.4783 218.547 82.809 222.576 78.5382C226.62 74.3051 231.95 72.1507 238.602 72.1507C244.12 72.1507 248.202 73.7798 250.809 77.0264C253.429 80.2881 254.74 85.4547 254.74 92.5224V153.751H286.828V91.0106C286.828 76.2705 283.778 65.272 277.682 57.9775C271.597 50.683 262.299 47.0547 249.827 47.0547V47.2437Z" fill="white"/>
<path d="M363.59 92.5986L345.978 88.5545C341.745 87.4244 338.759 86.2263 337.058 84.9451C335.369 83.6638 334.518 81.8949 334.518 79.6537C334.518 76.5431 335.928 74.1356 338.751 72.4348C341.575 70.734 345.479 69.8836 350.43 69.8836C361.202 69.8836 372.087 73.701 383.161 81.3356L391.665 60.0946C385.995 55.9749 379.608 52.8001 372.54 50.5324C365.473 48.2723 358.178 47.1309 350.657 47.1309C341.851 47.1309 334.065 48.5519 327.186 51.3639C320.307 54.1948 315.016 58.0915 311.274 63.0426C307.514 67.9938 305.643 73.7387 305.643 80.2395C305.643 88.4411 308.024 94.9419 312.748 99.6663C317.473 104.428 324.88 107.906 334.972 110.173L351.98 113.991C357.233 115.121 360.786 116.402 362.714 117.808C364.622 119.229 365.582 121.21 365.582 123.742C365.582 126.58 364.203 128.806 361.425 130.432C358.666 132.061 354.811 132.873 349.859 132.873C342.905 132.873 336.064 131.815 329.261 129.695C322.458 127.563 316.222 124.592 310.552 120.775L302.048 142.847C307.831 146.967 314.748 150.104 322.76 152.296C330.773 154.485 339.579 155.584 349.217 155.584C363.239 155.584 374.237 152.716 382.25 146.967C390.263 141.222 394.269 133.323 394.269 123.269C394.269 114.917 391.827 108.303 386.937 103.427C382.023 98.5136 374.275 94.8852 363.655 92.4663L363.59 92.5986Z" fill="white"/>
<path d="M601.323 103.937C596.447 99.0618 588.699 95.3957 578.078 93.0146L560.428 88.9705C556.195 87.8404 553.209 86.6423 551.508 85.3611C549.808 84.0798 548.957 82.311 548.957 80.0697C548.957 76.9591 550.378 74.5516 553.19 72.8508C556.002 71.15 559.918 70.2996 564.869 70.2996C575.641 70.2996 586.526 74.117 597.6 81.7516L606.104 60.5106C600.434 56.3909 594.047 53.2161 586.979 50.9484C579.911 48.6883 572.617 47.5469 565.096 47.5469C556.327 47.5469 548.504 48.968 541.625 51.7799C534.746 54.6108 529.417 58.5075 525.675 63.4587C521.926 68.4098 520.044 74.1547 520.044 80.6555C520.044 88.8571 522.414 95.3579 527.149 100.082C531.874 104.844 539.282 108.322 549.335 110.589L566.343 114.407C571.596 115.537 575.149 116.818 577.077 118.224C578.997 119.645 579.945 121.626 579.945 124.158C579.945 126.996 578.566 129.222 575.788 130.848C573.029 132.477 569.174 133.289 564.223 133.289C557.268 133.289 550.427 132.231 543.624 130.111C536.821 127.979 530.585 125.008 524.916 121.191L516.412 143.263C522.232 147.383 529.111 150.52 537.123 152.712C545.136 154.901 553.942 156 563.58 156C577.602 156 588.601 153.132 596.613 147.383C604.626 141.638 608.632 133.739 608.632 123.685C608.613 115.333 606.172 108.719 601.3 103.805L601.323 103.937Z" fill="white"/>
<path d="M425.726 192.681H456.774L514.866 50.457H483.817L458.778 111.553L433.738 50.457H402.689L442.752 149.613L425.726 192.681Z" fill="white"/>
</g>
<defs>
<clipPath id="clip0_688_12">
<rect width="608.504" height="192" fill="white"/>
</clipPath>
</defs>
</svg>
