<svg width="808" height="375" viewBox="0 0 808 375" fill="none" xmlns="http://www.w3.org/2000/svg">
<path d="M239.832 279.897C190.004 299.553 150.196 310.49 113.962 318.635C77.7277 326.78 51.0468 328.377 36.0225 323.299C20.9982 318.221 18.0411 306.607 27.3843 289.374C36.7275 272.14 81.0456 235.715 112.793 209.947C81.9562 234.976 46.1652 268.341 37.09 285.08C28.0148 301.82 33.2882 316.458 63.0343 313.758C82.4997 311.992 116.09 306.744 150.174 295.049C221.371 270.621 223.351 270.138 251.974 255.327L239.832 279.897Z" fill="white"/>
<path d="M506.419 123.4C561.057 93.7326 614.809 66.0179 663.126 50.46C711.442 34.9021 746.864 30.237 761.996 37.4386C777.128 44.6401 770.801 63.1517 744.336 89.1087C717.87 115.066 673.312 146.462 619.964 176.743C669.311 148.733 705.46 117.97 729.941 93.9601C754.421 69.9498 760.274 52.8266 746.277 46.1652C732.279 39.5038 699.514 43.819 654.822 58.2101C610.129 72.6011 556.963 95.9556 506.423 123.398L506.419 123.4Z" fill="white"/>
<path d="M196.387 150.676C196.941 144.582 195.464 139.812 191.956 136.365C188.447 132.857 182.538 131.102 174.228 131.102C168.935 131.102 164.503 131.718 160.933 132.949C157.424 134.18 154.685 135.873 152.715 138.027C150.807 140.181 149.607 142.674 149.115 145.506C148.561 147.722 148.591 149.753 149.207 151.599C149.884 153.384 151.146 155.016 152.992 156.493C154.901 157.97 157.393 159.294 160.471 160.463C163.61 161.633 167.334 162.679 171.643 163.602L186.416 166.926C196.51 169.142 204.974 172.066 211.806 175.697C218.7 179.268 224.117 183.515 228.056 188.439C231.996 193.363 234.581 198.872 235.812 204.966C237.105 211.06 237.135 217.707 235.904 224.909C233.812 237.343 228.98 247.868 221.409 256.486C213.838 265.103 203.958 271.659 191.771 276.152C179.583 280.645 165.488 282.892 149.484 282.892C133.111 282.892 119.2 280.461 107.751 275.598C96.3637 270.674 88.1155 263.164 83.0066 253.07C77.9593 242.913 76.7282 229.956 79.3135 214.199H128.063C127.325 219.985 127.94 224.848 129.91 228.787C131.88 232.726 135.05 235.712 139.42 237.743C143.79 239.774 149.238 240.79 155.762 240.79C161.302 240.79 166.042 240.113 169.981 238.759C173.92 237.404 177.029 235.527 179.306 233.126C181.584 230.726 182.969 227.987 183.461 224.909C183.954 222.078 183.461 219.554 181.984 217.338C180.507 215.122 177.829 213.122 173.951 211.337C170.073 209.552 164.749 207.92 157.978 206.443L139.882 202.381C123.816 198.688 111.69 192.594 103.504 184.099C95.3173 175.605 92.4243 163.972 94.8248 149.199C96.7945 137.134 101.75 126.609 109.69 117.622C117.692 108.574 127.848 101.557 140.159 96.571C152.531 91.5237 166.226 89 181.245 89C196.51 89 209.283 91.5545 219.562 96.6634C229.903 101.772 237.32 108.943 241.813 118.176C246.368 127.409 247.599 138.242 245.507 150.676H196.387Z" fill="white"/>
<path d="M253.495 132.764L260.512 91.4004H424.859L417.841 132.764H360.966L336.591 280.491H285.995L310.37 132.764H253.495Z" fill="white"/>
<path d="M354 280.091H409.398L471.306 148.091L464.616 91H447.807L354 280.091Z" fill="white"/>
<path d="M493.602 280.091H549L538.895 218.5L536.106 201.5L486.447 227L488.806 244.5L493.602 280.091Z" fill="white"/>
<path d="M517.977 91H468.616L475.136 143.074L484.089 209.5L533.317 184.5L517.977 91Z" fill="white"/>
<path d="M556 280.091L587.392 91H669.011C683.045 91 694.894 93.5545 704.558 98.6634C714.222 103.772 721.178 111.128 725.425 120.73C729.672 130.332 730.688 141.843 728.472 155.261C726.256 168.803 721.362 180.221 713.791 189.516C706.282 198.749 696.71 205.766 685.077 210.567C673.505 215.306 660.517 217.676 646.114 217.676H597.364L604.011 177.79H642.42C648.453 177.79 653.746 177.051 658.301 175.574C662.856 174.035 666.549 171.634 669.381 168.372C672.212 165.048 674.059 160.678 674.92 155.261C675.782 149.845 675.351 145.444 673.628 142.058C671.904 138.611 669.042 136.088 665.041 134.487C661.04 132.825 656.085 131.994 650.176 131.994H632.08L607.335 280.091H556ZM681.199 193.301L714.068 280.091H658.301L626.54 193.301H681.199Z" fill="white"/>
</svg>
