<svg width="99" height="291" viewBox="0 0 99 291" fill="none" xmlns="http://www.w3.org/2000/svg">
<path d="M32.0259 269C32.0259 266.239 34.2644 264 37.0259 264H43.0259C45.7873 264 48.0259 266.239 48.0259 269V273C48.0259 275.761 45.7873 278 43.0259 278H37.0259C34.2644 278 32.0259 275.761 32.0259 273V269Z" fill="white"/>
<path d="M49.0259 269C49.0259 266.239 51.2644 264 54.0259 264H60.0259C62.7873 264 65.0259 266.239 65.0259 269V273C65.0259 275.761 62.7873 278 60.0259 278H54.0259C51.2644 278 49.0259 275.761 49.0259 273V269Z" fill="white"/>
<path d="M36.2759 285C36.2759 283.343 37.619 282 39.2759 282H41.2759C42.9327 282 44.2759 283.343 44.2759 285V288C44.2759 289.657 42.9327 291 41.2759 291H39.2759C37.619 291 36.2759 289.657 36.2759 288V285Z" fill="white"/>
<path d="M52.7759 285C52.7759 283.343 54.119 282 55.7759 282H57.7759C59.4327 282 60.7759 283.343 60.7759 285V288C60.7759 289.657 59.4327 291 57.7759 291H55.7759C54.119 291 52.7759 289.657 52.7759 288V285Z" fill="white"/>
<path d="M0.137541 269.314L36 254.869H62.1485L98.0109 269.314C98.752 256.175 93.6804 242.976 91.0393 238L82.3841 224L73.9645 210.732C73.6571 210.248 73.444 209.711 73.2811 209.161C72.6697 207.095 71.7114 205.671 71.1344 203.541C71.0375 203.184 71 202.813 71 202.443V113L69 111V51C69 30 53.8383 0 48.4194 0C43.0006 0 28 29 28 51V111L26 113V202.443C26 202.813 25.9588 203.182 25.8772 203.544L24.6039 209.183C24.4819 209.724 24.2708 210.241 23.9794 210.712L7.10917 238C4.46807 242.976 -0.603575 256.175 0.137541 269.314Z" fill="white"/>
<circle cx="48.4995" cy="79.5" r="8.5" fill="#1F1B54"/>
</svg>
